<?xml version="1.0" standalone="no"?>
<!DOCTYPE svg PUBLIC "-//W3C//DTD SVG 20010904//EN"
 "http://www.w3.org/TR/2001/REC-SVG-20010904/DTD/svg10.dtd">
<svg version="1.0" xmlns="http://www.w3.org/2000/svg"
 width="2100.000000pt" height="1500.000000pt" viewBox="0 0 2100.000000 1500.000000"
 preserveAspectRatio="xMidYMid meet">

<g transform="translate(0.000000,1500.000000) scale(0.100000,-0.100000)"
fill="#000000" stroke="none">
<path d="M5190 11326 c-165 -37 -289 -165 -319 -330 -16 -84 -16 -6488 0
-6572 31 -169 164 -302 334 -333 83 -16 11007 -16 11090 0 170 31 303 164 334
333 16 84 16 6488 0 6572 -31 167 -159 297 -327 333 -80 17 -11036 14 -11112
-3z m9821 -487 c57 -36 157 -141 164 -172 4 -15 -10 -57 -41 -121 l-46 -99
-39 74 c-123 234 -359 304 -547 162 -37 -28 -42 -30 -23 -9 72 77 245 158 388
180 48 8 90 14 92 15 2 1 26 -13 52 -30z m628 -31 l95 -42 -66 -12 c-147 -27
-228 -102 -319 -292 -161 -336 -159 -333 -239 -413 -84 -85 -195 -149 -259
-149 -49 0 -171 35 -234 66 -59 30 -149 112 -184 168 -14 21 -33 62 -43 91
-22 64 -37 185 -23 185 6 0 13 -24 16 -54 15 -144 139 -272 288 -295 183 -29
336 91 450 351 100 230 164 330 257 404 56 44 58 45 112 39 30 -3 96 -24 149
-47z m-1262 -365 c-3 -10 -5 -4 -5 12 0 17 2 24 5 18 2 -7 2 -21 0 -30z m1093
-286 c66 -62 142 -96 221 -100 43 -2 47 -4 31 -15 -32 -25 -147 -80 -200 -96
-53 -15 -54 -15 -95 10 -52 33 -132 108 -159 152 l-20 33 47 103 48 103 34
-68 c22 -45 53 -86 93 -122z"/>
</g>
</svg>
